<?xml version="1.0" encoding="utf-8"?>
<!-- Generator: Adobe Illustrator 16.0.0, SVG Export Plug-In . SVG Version: 6.00 Build 0)  -->
<!DOCTYPE svg PUBLIC "-//W3C//DTD SVG 1.1//EN" "http://www.w3.org/Graphics/SVG/1.1/DTD/svg11.dtd">
<svg version="1.1" id="Capa_1" xmlns="http://www.w3.org/2000/svg" xmlns:xlink="http://www.w3.org/1999/xlink" x="0px" y="0px"
	 width="241.487px" height="187.49px" viewBox="0 0 241.487 187.49" enable-background="new 0 0 241.487 187.49"
	 xml:space="preserve">
<path fill="#FFFFFF" d="M207.025,6.874H35.016c-15.833,0-28.668,12.836-28.668,28.668v114.673c0,15.832,12.836,28.669,28.668,28.669
	h172.01c15.832,0,28.669-12.837,28.669-28.669V35.542C235.694,19.71,222.857,6.874,207.025,6.874z M159.838,83.375l60.682-52.003
	c0.421,1.344,0.84,2.688,0.84,4.171v114.673c0,0.994-0.378,1.876-0.573,2.813L159.838,83.375z M207.025,21.208
	c0.952,0,1.792,0.364,2.688,0.546l-88.692,76.025L32.328,21.754c0.896-0.182,1.736-0.546,2.688-0.546H207.025z M21.249,153.016
	c-0.196-0.938-0.567-1.806-0.567-2.8V35.542c0-1.484,0.427-2.828,0.847-4.171L82.189,83.36L21.249,153.016z M35.016,164.55
	c-1.449,0-2.765-0.42-4.087-0.826L93.08,92.697l23.279,19.948c1.337,1.162,3.002,1.736,4.661,1.736c1.658,0,3.324-0.574,4.661-1.736
	l23.279-19.947l62.152,71.027c-1.315,0.406-2.632,0.825-4.088,0.825H35.016z"/>
</svg>
