<?xml version="1.0" encoding="utf-8"?>
<!-- Generator: Adobe Illustrator 16.0.0, SVG Export Plug-In . SVG Version: 6.00 Build 0)  -->
<!DOCTYPE svg PUBLIC "-//W3C//DTD SVG 1.1//EN" "http://www.w3.org/Graphics/SVG/1.1/DTD/svg11.dtd">
<svg version="1.1" xmlns="http://www.w3.org/2000/svg" xmlns:xlink="http://www.w3.org/1999/xlink" x="0px" y="0px"
	 width="107.994px" height="217.489px" viewBox="0 0 107.994 217.489" enable-background="new 0 0 107.994 217.489"
	 xml:space="preserve">
<g id="Background">
</g>
<g id="Design">
	<path fill="#A2B1CE" d="M50.434,109.572c-0.105-0.768-0.211-1.535-0.32-2.307c0.309-4.689-0.375-9.523,2.027-13.906
		c0.758,0.652,1.516,1.307,2.273,1.959c5.02,4.148,0.809,9.557,1.938,14.236c-0.645,0.035-1.289,0.057-1.938,0.063
		C53.09,109.602,51.762,109.588,50.434,109.572z"/>
	<path fill="#E8ECF3" d="M57.281,104.447c-1.051,2.617-2.105,5.236-3.156,7.854c-1.41-2.76-9.039-5.512-0.012-8.289
		C55.172,104.156,56.227,104.303,57.281,104.447z"/>
	<path fill="#A7B5D1" d="M50.645,109.572c1.328,0.016,2.652,0.029,3.98,0.045c0.648,2.039,1.301,4.076,1.949,6.113
		c-2.168,1.434-0.094,2.717,0.145,4.064c-0.703,0.705-1.406,1.41-2.109,2.115c-1.684,0.826-2.012,2.344-2.035,4.012
		C48.523,120.875,51.355,115.014,50.645,109.572z"/>
	<path fill-rule="evenodd" clip-rule="evenodd" fill="#FFFFFF" d="M27.121,108.957v98.26c0,1.412,1.145,2.559,2.559,2.559h36.492
		c1.414,0,2.559-1.146,2.559-2.559v-99.861h26.453c1.328,0,5.438,2.127,5.551,0.801l-0.457-33.232
		c0.125-1.492-1.051-2.775-2.551-2.775H68.73V50.803c0-5.004,4.055-9.059,9.059-9.059h20.387c1.414,0,2.559-1.146,2.559-2.561V9.096
		c0-1.412-1.145-2.559-2.559-2.559H63.727c-20.215,0-36.605,16.389-36.605,36.605v29.006H8.879c-1.414,0-2.563,1.146-2.563,2.561
		v30.088c0,1.414,1.148,2.559,2.563,2.559h18.242V108.957z"/>
</g>
</svg>
