<?xml version="1.0" encoding="utf-8"?>
<!-- Generator: Adobe Illustrator 16.0.0, SVG Export Plug-In . SVG Version: 6.00 Build 0)  -->
<!DOCTYPE svg PUBLIC "-//W3C//DTD SVG 1.1//EN" "http://www.w3.org/Graphics/SVG/1.1/DTD/svg11.dtd">
<svg version="1.1" xmlns="http://www.w3.org/2000/svg" xmlns:xlink="http://www.w3.org/1999/xlink" x="0px" y="0px"
	 width="119.994px" height="122.994px" viewBox="0 0 119.994 122.994" enable-background="new 0 0 119.994 122.994"
	 xml:space="preserve">
<g id="Background">
</g>
<g id="Design">
	<g>
		<path fill="#FFFFFF" d="M88.413,30.028c-3.441,0-6.232,2.79-6.232,6.231s2.791,6.231,6.232,6.231s6.232-2.79,6.232-6.231
			S91.854,30.028,88.413,30.028z M60.708,38.019c-14.434,0-26.178,11.743-26.178,26.177c0,14.435,11.744,26.178,26.178,26.178
			S86.886,78.63,86.886,64.196C86.886,49.762,75.142,38.019,60.708,38.019z M60.708,80.964c-9.246,0-16.768-7.521-16.768-16.769
			c0-9.246,7.521-16.768,16.768-16.768s16.77,7.521,16.77,16.768C77.478,73.443,69.954,80.964,60.708,80.964z M113.028,42.44
			c0-17.633-13.795-31.428-31.43-31.428H39.458c-17.635,0-32.43,13.795-32.43,31.428v42.145c0,17.633,14.795,32.428,32.43,32.428
			h42.141c17.635,0,31.43-14.795,31.43-32.428V42.44z M103.028,85.084c0,12.11-9.818,21.928-21.93,21.928H38.958
			c-12.111,0-21.93-9.817-21.93-21.928V42.94c0-12.11,9.818-21.928,21.93-21.928h42.141c12.111,0,21.93,9.817,21.93,21.928V85.084z"
			/>
	</g>
</g>
</svg>
