<?xml version="1.0" encoding="utf-8"?>
<!-- Generator: Adobe Illustrator 16.0.0, SVG Export Plug-In . SVG Version: 6.00 Build 0)  -->
<!DOCTYPE svg PUBLIC "-//W3C//DTD SVG 1.1//EN" "http://www.w3.org/Graphics/SVG/1.1/DTD/svg11.dtd">
<svg version="1.1" id="Layer_1" xmlns="http://www.w3.org/2000/svg" xmlns:xlink="http://www.w3.org/1999/xlink" x="0px" y="0px"
	 width="216.999px" height="21px" viewBox="2.361 11.024 216.999 21" enable-background="new 2.361 11.024 216.999 21"
	 xml:space="preserve">
<path fill="#FF151D" d="M2.361,11.024v4h19v1h-19v9h5l-0.25-5.75l16.25,0.25c0,0,2,0.75,3.25-1.5s0-5.389,0-5.389
	s-1.25-1.861-3.5-1.611S2.361,11.024,2.361,11.024z"/>
<path fill="#FF151D" stroke="#FF151D" stroke-width="0.25" stroke-miterlimit="10" d="M52.174,13.024c0,0-2.469-2.296-2.969-2.023
	s-17.859,0-17.859,0l-3.985,2.023v9c0,0,2.75,2.875,4,3s17.75,0,17.75,0s2.875-1.125,3-2.75S52.174,13.024,52.174,13.024z
	 M46.219,21.952H34.538c-4.514,0-4.514-7,0-7h11.681C50.733,14.952,50.733,21.952,46.219,21.952z"/>
<path fill="#FF151D" d="M54.361,11.024v11c0,0,2.063,3.125,2.688,3s21.313,0,21.313,0v-5l-18,0.376c0,0-2.375-0.001-1.875-1.001
	s0.375-8.375,0.375-8.375H54.361z"/>
<rect x="79.361" y="11.024" fill="#FF151D" width="5" height="4"/>
<rect x="79.361" y="16.024" fill="#FF151D" width="5" height="9"/>
<polygon fill="#FF151D" points="86.361,11.024 86.361,15.024 96.361,15.024 96.361,25.024 100.361,25.024 100.361,15.024 
	110.359,15.024 110.359,11.024 "/>
<path fill="#FF151D" d="M112.359,15.024h24v-4h-21C115.359,11.024,110.609,12.524,112.359,15.024z"/>
<path fill="#FF151D" d="M112.359,16.024v6c0,0,0.5,2.875,2.625,3s20.375,0,20.375,0v-4l-18.875-0.25l0.125-0.75h18.75v-4H112.359z"
	/>
<rect x="137.359" y="11.024" fill="#FF151D" width="5" height="14"/>
<polygon fill="#FF151D" points="157.234,10.711 152.234,16.024 143.359,16.024 143.359,19.024 152.359,19.024 157.109,24.024 
	161.359,24.024 155.609,18.024 161.359,11.024 "/>
<path fill="#FF151D" d="M164.359,11.024v14h3v-10h14c0,0,2,1.313,1.75,2.345c-0.25,1.03,0.021,7.655,0.021,7.655h4.229v-12
	c0,0-2.75-2.25-3.375-2S164.359,11.024,164.359,11.024z"/>
<rect x="189.359" y="11.024" fill="#FF151D" width="4" height="4"/>
<rect x="189.359" y="16.024" fill="#FF151D" width="4" height="9"/>
<rect x="195.359" y="11.024" fill="#FF151D" width="4" height="14"/>
<polygon fill="#FF151D" points="201.359,16.024 201.359,20.024 209.359,20.024 214.484,25.024 219.359,25.024 213.234,18.014 
	219.359,11.004 214.109,11.024 210.359,16.024 "/>
<rect x="2.361" y="29.024" fill="#FF151D" width="61" height="3"/>
<rect x="157.359" y="29.024" fill="#FF151D" width="62" height="3"/>
</svg>
