<?xml version="1.0" encoding="utf-8"?>
<!-- Generator: Adobe Illustrator 16.0.0, SVG Export Plug-In . SVG Version: 6.00 Build 0)  -->
<!DOCTYPE svg PUBLIC "-//W3C//DTD SVG 1.1//EN" "http://www.w3.org/Graphics/SVG/1.1/DTD/svg11.dtd">
<svg version="1.1" id="Design" xmlns="http://www.w3.org/2000/svg" xmlns:xlink="http://www.w3.org/1999/xlink" x="0px" y="0px"
	 width="198.503px" height="169.47px" viewBox="0 0 198.503 169.47" enable-background="new 0 0 198.503 169.47"
	 xml:space="preserve">
<g>
	<path fill="#FFFFFF" stroke="#FFFFFF" stroke-miterlimit="10" d="M197.063,26.218c-6.277,2.84-13.285,4.564-20.063,5.701
		c3.219-0.539,7.905-6.363,9.8-8.717c2.891-3.592,5.272-7.686,6.624-12.105c0.172-0.344,0.294-0.777-0.05-1.039
		c-0.434-0.172-0.722-0.084-1.065,0.088c-7.563,4.053-15.392,6.992-23.716,9.074c-0.688,0.172-1.2-0.002-1.634-0.434
		c-0.691-0.779-1.339-1.514-2.073-2.119c-3.5-2.977-7.257-5.313-11.487-7.039c-5.559-2.266-11.632-3.225-17.616-2.836
		c-5.824,0.379-11.543,2.02-16.711,4.721c-5.18,2.707-9.805,6.471-13.484,11.012c-3.805,4.699-6.613,10.248-8.051,16.127
		c-1.387,5.676-1.273,11.289-0.426,17.027c0.125,0.951,0.043,1.078-0.82,0.951c-32.566-4.848-59.559-16.5-81.473-41.471
		c-0.949-1.084-1.469-1.084-2.246,0.082c-9.59,14.373-4.938,37.467,7.039,48.814c1.598,1.514,3.242,3.025,5.008,4.406
		c-0.645,0.133-8.617-0.73-15.719-4.406c-0.953-0.602-1.43-0.256-1.516,0.824c-0.086,1.553,0.047,2.98,0.258,4.666
		c1.844,14.57,11.934,28.047,25.75,33.305c1.641,0.691,3.453,1.297,5.227,1.598c-3.152,0.689-6.395,1.184-15.422,0.477
		c-1.125-0.215-1.555,0.346-1.125,1.426c6.785,18.492,21.43,23.994,32.398,27.129c1.469,0.258,2.938,0.258,4.41,0.602
		c-0.09,0.133-0.176,0.133-0.262,0.262c-3.637,5.547-16.25,9.674-22.125,11.727c-10.68,3.732-22.313,5.414-33.602,4.299
		c-1.809-0.264-2.188-0.244-2.676,0c-0.496,0.307-0.063,0.738,0.516,1.209c2.293,1.512,4.625,2.854,7,4.148
		c7.168,3.801,14.645,6.826,22.461,8.984c40.367,11.148,85.84,2.957,116.152-27.158c23.801-23.648,32.141-56.262,32.141-88.916
		c0-1.279,1.512-1.984,2.41-2.658c6.191-4.654,11.312-10.221,15.933-16.439c1.035-1.396,1.174-2.639,1.174-3.148
		c0-0.088,0-0.172,0-0.172C198.003,25.694,197.864,25.853,197.063,26.218z"/>
	<path fill-rule="evenodd" clip-rule="evenodd" fill="#FFFFFF" stroke="#FFFFFF" stroke-miterlimit="10" d="M58.682,168.771
		C75.424,168.771,59.486,168.771,58.682,168.771C60.889,168.771,58.596,168.771,58.682,168.771z"/>
	<path fill-rule="evenodd" clip-rule="evenodd" fill="#FFFFFF" stroke="#FFFFFF" stroke-miterlimit="10" d="M58.682,168.771
		C58.424,168.792,55.424,168.771,58.682,168.771C58.682,168.771,58.162,168.771,58.682,168.771z"/>
	<path fill-rule="evenodd" clip-rule="evenodd" fill="#FFFFFF" stroke="#FFFFFF" stroke-miterlimit="10" d="M65.338,168.944
		C65.338,168.61,68.838,168.944,65.338,168.944C65.338,168.771,65.768,168.944,65.338,168.944z"/>
	<path fill-rule="evenodd" clip-rule="evenodd" fill="#FFFFFF" stroke="#FFFFFF" stroke-miterlimit="10" d="M135.229,6.948
		c-0.215,0.172-0.516,0.172-0.816,0C134.713,6.948,135.014,6.948,135.229,6.948z"/>
</g>
</svg>
